HIERARCHY
ROOT Hips
{
	OFFSET 0.000000 0.000000 0.000000
	CHANNELS 6 Xposition Yposition Zposition Xrotation Yrotation Zrotation
	JOINT LeftUpLeg_virtual
	{
		OFFSET 0.000000 0.000000 0.000000
		CHANNELS 3 Xrotation Yrotation Zrotation
		JOINT LeftUpLeg
		{
			OFFSET 13.026900 -6.336304 -1.092800
			CHANNELS 3 Xrotation Yrotation Zrotation
			JOINT LeftLeg
			{
				OFFSET 0.524474 -46.096886 9.782700
				CHANNELS 3 Xrotation Yrotation Zrotation
				JOINT LeftFoot
				{
					OFFSET -0.524474 -53.427422 -12.948200
					CHANNELS 3 Xrotation Yrotation Zrotation
					JOINT LeftToeBase
					{
						OFFSET 0.192200 -14.009700 16.364100
						CHANNELS 3 Xrotation Yrotation Zrotation
						JOINT LeftToe_End
						{
							OFFSET -1.784700 -0.561700 9.474800
							CHANNELS 3 Xrotation Yrotation Zrotation
							End Site
							{
								OFFSET 0 0 0
							}
						}
					}
				}
			}
		}
	}
	JOINT RightUpLeg_virtual
	{
		OFFSET 0.000000 0.000000 0.000000
		CHANNELS 3 Xrotation Yrotation Zrotation
		JOINT RightUpLeg
		{
			OFFSET -12.883000 -6.336304 -1.092800
			CHANNELS 3 Xrotation Yrotation Zrotation
			JOINT RightLeg
			{
				OFFSET -0.524587 -46.096825 9.782800
				CHANNELS 3 Xrotation Yrotation Zrotation
				JOINT RightFoot
				{
					OFFSET 0.524587 -53.427383 -12.948300
					CHANNELS 3 Xrotation Yrotation Zrotation
					JOINT RightToeBase
					{
						OFFSET -0.192200 -14.009700 16.364100
						CHANNELS 3 Xrotation Yrotation Zrotation
						JOINT RightToe_End
						{
							OFFSET 1.784700 -0.561700 9.474800
							CHANNELS 3 Xrotation Yrotation Zrotation
							End Site
							{
								OFFSET 0 0 0
							}
						}
					}
				}
			}
		}
	}
	JOINT Spine_virtual
	{
		OFFSET 0.000000 0.000000 0.000000
		CHANNELS 3 Xrotation Yrotation Zrotation
		JOINT Spine
		{
			OFFSET 0.072000 7.257294 -0.789700
			CHANNELS 3 Xrotation Yrotation Zrotation
			JOINT Spine1
			{
				OFFSET 0.000000 12.508769 -0.658067
				CHANNELS 3 Xrotation Yrotation Zrotation
				JOINT Spine1_split
				{
					OFFSET 0.000000 12.508769 -0.658067
					CHANNELS 3 Xrotation Yrotation Zrotation
					JOINT Spine2
					{
						OFFSET 0.000000 12.508769 -0.658067
						CHANNELS 3 Xrotation Yrotation Zrotation
						JOINT Neck_virtual
						{
							OFFSET 0.000000 0.000000 0.000000
							CHANNELS 3 Xrotation Yrotation Zrotation
							JOINT Neck
							{
								OFFSET 0.000000 14.033295 7.520400
								CHANNELS 3 Xrotation Yrotation Zrotation
								JOINT Head
								{
									OFFSET 0.000000 8.198502 5.703100
									CHANNELS 3 Xrotation Yrotation Zrotation
									JOINT HeadTop_End
									{
										OFFSET 0.000000 17.760803 13.332701
										CHANNELS 3 Xrotation Yrotation Zrotation
										End Site
										{
											OFFSET 0 0 0
										}
									}
								}
							}
						}
						JOINT LeftShoulder_virtual
						{
							OFFSET 0.000000 0.000000 0.000000
							CHANNELS 3 Xrotation Yrotation Zrotation
							JOINT LeftShoulder
							{
								OFFSET 6.292450 5.785301 -0.669000
								CHANNELS 3 Xrotation Yrotation Zrotation
								JOINT LeftShoulder_split
								{
									OFFSET 6.292450 5.785301 -0.669000
									CHANNELS 3 Xrotation Yrotation Zrotation
									JOINT LeftArm
									{
										OFFSET 13.907140 -6.093903 1.965100
										CHANNELS 3 Xrotation Yrotation Zrotation
										JOINT LeftForeArm
										{
											OFFSET 34.140198 0.000000 0.000000
											CHANNELS 3 Xrotation Yrotation Zrotation
											JOINT LeftHand
											{
												OFFSET 40.960209 0.000000 0.000000
												CHANNELS 3 Xrotation Yrotation Zrotation
												End Site
												{
													OFFSET 0 0 0
												}
											}
										}
									}
								}
							}
						}
						JOINT RightShoulder_virtual
						{
							OFFSET 0.000000 0.000000 0.000000
							CHANNELS 3 Xrotation Yrotation Zrotation
							JOINT RightShoulder
							{
								OFFSET -6.292450 5.785301 -0.669000
								CHANNELS 3 Xrotation Yrotation Zrotation
								JOINT RightShoulder_split
								{
									OFFSET -6.292450 5.785301 -0.669000
									CHANNELS 3 Xrotation Yrotation Zrotation
									JOINT RightArm
									{
										OFFSET -13.907140 -6.093903 1.965100
										CHANNELS 3 Xrotation Yrotation Zrotation
										JOINT RightForeArm
										{
											OFFSET -34.140198 0.000000 0.000000
											CHANNELS 3 Xrotation Yrotation Zrotation
											JOINT RightHand
											{
												OFFSET -40.960209 0.000000 0.000000
												CHANNELS 3 Xrotation Yrotation Zrotation
												End Site
												{
													OFFSET 0 0 0
												}
											}
										}
									}
								}
							}
						}
					}
				}
			}
		}
	}
}
MOTION
Frames: 11
Frame Time: 0.03333333
-1.247560 112.566406 2.724449 0.000000 0.000000 0.000000 -3.529428 -4.218415 9.275231 -33.483377 2.202655 2.897065 23.377876 8.115708 4.571473 26.160685 5.604315 -10.357196 -8.197665 1.347131 -0.350066 0.000000 0.000000 0.000000 -3.261849 -3.606169 8.838983 -7.720786 -4.295483 8.529377 16.117834 -8.568222 1.945968 -4.438998 -13.188290 -18.133032 -5.247369 0.635933 -1.894032 0.000000 0.000000 0.000000 -4.464621 -9.639494 8.201619 0.581086 1.496689 -2.402019 2.533066 3.193836 -4.607806 0.685761 -1.871092 0.159767 0.000000 0.000000 0.000000 0.607360 3.197212 -4.572924 2.945974 -1.317108 0.549780 9.967687 10.745707 7.732153 0.000000 0.000000 0.000000 1.330202 2.998678 -4.706672 -0.143766 3.137334 -1.685365 -3.804815 0.473198 -1.498760 -15.609194 6.718733 -21.027542 0.223068 -18.693292 -1.146491 0.000000 0.000000 0.000000 0.941096 3.154154 -4.411853 1.145143 -2.667833 5.906683 -3.403880 0.220372 -0.906722 -48.361370 33.624430 15.118207 -0.277245 12.636658 0.459357 0.000000 0.000000 0.000000 
-2.098645 112.604218 4.093094 0.000000 0.000000 0.000000 -4.443034 -5.463069 9.345457 -34.485772 4.496776 0.700055 22.220460 9.631811 4.477227 25.247536 7.100307 -8.759672 -8.523824 0.914353 0.344452 0.000000 0.000000 0.000000 -3.370864 -5.998558 8.864941 -7.830086 -5.677302 8.228986 19.262622 -8.407245 2.482216 -2.450014 -13.336084 -18.210177 -6.299828 0.468817 -1.325920 0.000000 0.000000 0.000000 -4.613453 -11.075492 8.309678 0.635541 1.673645 -2.727710 2.527558 3.525818 -4.578551 0.823375 -1.464405 0.076007 0.000000 0.000000 0.000000 0.813370 3.566155 -4.550707 3.155184 -1.365576 0.835613 9.626660 10.650194 7.723969 0.000000 0.000000 0.000000 1.433111 3.376608 -4.614975 -0.104852 3.298462 -0.392254 -4.515346 0.322729 -0.654966 -17.989637 7.290633 -19.351758 -0.244972 -18.235915 -1.100825 0.000000 0.000000 0.000000 1.014709 3.458333 -4.387314 0.964664 -2.964837 5.506274 -3.464075 0.837228 -1.353814 -49.137651 35.731025 15.116115 -0.033906 14.342098 0.007303 0.000000 0.000000 0.000000 
-2.795335 112.524490 5.873585 0.000000 0.000000 0.000000 -5.174586 -9.033402 9.365471 -34.674364 7.133793 -2.999774 21.417525 11.074631 4.196248 25.202623 9.021148 -7.929370 -8.368702 0.379458 1.166270 0.000000 0.000000 0.000000 -3.562029 -10.776212 9.046404 -7.604045 -6.426804 7.436544 23.554703 -7.871640 2.912301 -1.350880 -12.609352 -18.130303 -8.569137 0.163872 -0.137879 0.000000 0.000000 0.000000 -4.939780 -13.909631 8.504752 0.491749 2.373088 -3.168640 2.562953 4.344729 -4.462655 0.801624 -1.377809 0.079659 0.000000 0.000000 0.000000 1.033058 4.418084 -4.423430 3.170634 -1.353060 0.971216 9.572252 10.404408 7.512036 0.000000 0.000000 0.000000 1.505853 4.286607 -4.402859 -0.173518 3.362471 1.552238 -4.634060 0.519866 -0.529277 -19.629544 8.343733 -15.624954 -0.495057 -18.061231 -0.882402 0.000000 0.000000 0.000000 1.160747 4.244561 -4.272723 0.944353 -3.504126 4.798088 -3.087685 0.828187 -1.236756 -50.060652 39.649474 14.561688 0.242401 16.321555 -0.447085 0.000000 0.000000 0.000000 
-3.605847 112.325012 7.832764 0.000000 0.000000 0.000000 -5.498553 -14.194276 9.308665 -33.923716 9.440164 -7.390441 21.421230 12.142209 3.713736 26.169573 11.033364 -7.887164 -9.558559 -0.206399 2.374627 0.000000 0.000000 0.000000 -3.517908 -16.420772 9.248797 -6.668626 -6.545488 6.700907 26.650981 -7.228948 2.880627 -2.540409 -10.872297 -18.671126 -10.405943 -0.154936 1.314816 0.000000 0.000000 0.000000 -5.371936 -17.399950 8.507023 0.306882 3.327963 -3.599144 2.627510 5.438294 -4.223366 0.431239 -1.747189 0.207466 0.000000 0.000000 0.000000 1.195811 5.535169 -4.143047 2.992040 -1.192579 0.977795 9.746195 10.151860 7.109512 0.000000 0.000000 0.000000 1.528229 5.484372 -4.074014 -0.304695 3.388414 3.750809 -4.106540 1.031772 -0.962906 -20.400351 9.862418 -10.779711 -0.624519 -17.388700 -0.573545 0.000000 0.000000 0.000000 1.349716 5.347054 -4.046572 1.030995 -4.188741 3.890375 -2.597106 0.351483 -0.645761 -50.726893 44.460409 13.328872 0.498390 17.853992 -0.863036 0.000000 0.000000 0.000000 
-4.684123 112.089409 9.701221 0.000000 0.000000 0.000000 -5.319140 -20.101298 9.110312 -32.521164 11.160185 -11.851626 22.105303 13.121488 3.208780 26.822199 13.513477 -7.339701 -12.073756 -0.754190 3.538118 0.000000 0.000000 0.000000 -3.081718 -21.646012 9.300071 -4.681730 -6.467220 6.660052 27.452388 -6.779503 2.311676 -5.615991 -8.208429 -19.434485 -11.363237 -0.301834 2.561487 0.000000 0.000000 0.000000 -5.441903 -21.233281 8.170711 0.043126 4.240703 -3.886902 2.654138 6.564067 -3.851566 0.172247 -1.805404 0.120889 0.000000 0.000000 0.000000 1.280034 6.665107 -3.742752 2.814069 -0.910811 0.931189 10.062773 10.077133 6.576489 0.000000 0.000000 0.000000 1.474108 6.703353 -3.663228 -0.472018 3.467798 5.700153 -3.515552 1.649668 -1.140341 -20.652443 11.603304 -5.696975 -0.751302 -16.128614 -0.245278 0.000000 0.000000 0.000000 1.483736 6.507291 -3.711219 1.198428 -4.843270 3.028121 -2.234982 -0.080918 -0.013723 -51.249324 49.211554 11.704099 0.665520 18.500510 -1.183188 0.000000 0.000000 0.000000 
-6.178949 111.609039 11.477135 0.000000 0.000000 0.000000 -4.903574 -25.783018 8.650601 -30.907593 12.405056 -15.554561 23.714828 14.230668 2.676277 25.334572 16.892043 -5.288390 -13.227383 -0.968116 3.651457 0.000000 0.000000 0.000000 -2.815842 -25.708646 8.996545 -1.967577 -6.763879 7.638981 26.443139 -6.434544 1.426028 -8.850983 -5.154104 -19.218436 -12.264332 -0.199146 3.135027 0.000000 0.000000 0.000000 -5.344956 -24.861125 7.372672 -0.308410 4.847467 -4.005294 2.530765 7.506898 -3.441991 0.763476 -1.522793 -0.046668 0.000000 0.000000 0.000000 1.261559 7.591716 -3.329298 2.869763 -0.538486 0.898160 10.433389 10.228123 6.025210 0.000000 0.000000 0.000000 1.328199 7.727305 -3.259455 -0.627627 3.628786 7.017179 -3.400808 2.087173 -1.243721 -20.913717 13.365950 -0.960052 -1.036218 -14.583846 -0.001029 0.000000 0.000000 0.000000 1.500515 7.511518 -3.364621 1.405223 -5.387105 2.299464 -1.933534 -0.210200 0.423137 -51.792286 53.271009 10.205669 0.693111 18.434986 -1.354842 0.000000 0.000000 0.000000 
-8.309425 110.938614 13.335712 0.000000 0.000000 0.000000 -4.437901 -30.576339 7.959397 -29.288534 13.142483 -18.143839 25.950824 15.527785 2.138436 20.689432 20.916846 -1.506623 -11.881554 -0.735291 2.532853 0.000000 0.000000 0.000000 -2.639912 -28.541129 8.280560 0.668714 -7.878230 9.467731 25.189739 -6.020661 0.432179 -11.420021 -2.231204 -17.600453 -14.437094 0.136236 2.762133 0.000000 0.000000 0.000000 -5.182294 -28.282176 6.121734 -0.713025 5.113128 -3.911661 2.228682 8.204398 -3.144466 1.604325 -0.506711 0.164308 0.000000 0.000000 0.000000 1.167787 8.218935 -3.041168 3.309309 -0.150565 1.028550 10.744663 10.698801 5.572097 0.000000 0.000000 0.000000 1.040291 8.448597 -2.996443 -0.760463 3.969440 7.601048 -3.341450 2.077402 -0.920795 -21.937808 14.751095 2.966250 -1.547961 -13.158724 0.097418 0.000000 0.000000 0.000000 1.333172 8.226843 -3.144855 1.598546 -5.835031 1.846203 -1.688594 -0.109901 0.540598 -52.863352 56.300081 9.615408 0.601924 18.081532 -1.407636 0.000000 0.000000 0.000000 
-10.863809 110.088387 14.822361 0.000000 0.000000 0.000000 -4.108150 -33.911609 7.016350 -27.933652 13.488889 -19.426742 28.258811 16.344685 1.663075 14.054483 24.572780 3.135007 -9.374397 -0.237994 0.739012 0.000000 0.000000 0.000000 -2.741420 -30.704214 7.186897 2.346689 -9.949321 11.638289 25.386558 -5.578645 -0.507437 -13.158556 0.457758 -15.091347 -18.602466 0.647108 1.495241 0.000000 0.000000 0.000000 -5.015547 -31.400859 4.748938 -1.047118 5.072031 -3.643629 1.784767 8.696287 -3.115219 1.851136 0.538030 0.333900 0.000000 0.000000 0.000000 1.059108 8.571209 -3.041270 4.159633 0.220621 1.366952 10.913062 11.474880 5.291737 0.000000 0.000000 0.000000 0.555436 8.879824 -2.975021 -0.889796 4.421120 7.441318 -3.488060 1.542777 -0.183795 -23.629333 15.406706 6.006860 -2.156057 -12.360865 0.056843 0.000000 0.000000 0.000000 0.915924 8.625335 -3.176952 1.756397 -6.180708 1.775795 -1.436443 0.151673 0.368828 -54.876339 57.981571 10.663822 0.460356 17.830446 -1.359811 0.000000 0.000000 0.000000 
-13.528146 109.194839 15.744576 0.000000 0.000000 0.000000 -4.134153 -36.061558 5.897863 -27.016212 13.664803 -19.369739 30.076834 16.136477 1.267522 7.803537 26.864519 6.859772 -7.625190 0.265513 -0.851169 0.000000 0.000000 0.000000 -3.216970 -32.647218 5.869883 2.296277 -12.971707 13.056620 29.023953 -5.272632 -1.070168 -13.678924 2.738855 -13.051880 -23.090189 1.393444 -0.283638 0.000000 0.000000 0.000000 -4.992912 -33.965356 3.572099 -1.137928 4.845500 -3.379994 1.271969 8.989728 -3.416210 1.605225 1.059792 0.536078 0.000000 0.000000 0.000000 0.932609 8.714159 -3.391292 5.058623 0.492292 1.829383 10.781629 12.499206 5.234544 0.000000 0.000000 0.000000 0.000372 9.073520 -3.260409 -1.004410 4.875468 6.815217 -3.685285 0.415820 0.679808 -25.492178 15.271248 8.106058 -2.705236 -12.085572 -0.114650 0.000000 0.000000 0.000000 0.368745 8.772857 -3.528723 1.849995 -6.365664 2.173391 -1.236914 0.198128 0.140389 -57.199484 57.977009 13.099378 0.353084 18.007797 -1.250657 0.000000 0.000000 0.000000 
-16.180344 108.412354 16.064068 0.000000 0.000000 0.000000 -4.536829 -37.444579 4.892316 -26.614536 13.748064 -18.321820 31.167991 15.225911 0.944098 3.802377 27.783837 8.740514 -7.361387 0.632305 -1.661857 0.000000 0.000000 0.000000 -3.893098 -34.513212 4.735570 -0.243090 -16.875203 12.519417 36.117282 -5.082851 -1.162071 -11.766363 4.331372 -11.522773 -27.430339 2.293196 -2.121450 0.000000 0.000000 0.000000 -4.903927 -36.091529 2.859028 -0.931742 4.608454 -3.290192 0.808262 9.116678 -3.981319 1.181003 0.991320 0.610939 0.000000 0.000000 0.000000 0.783740 8.722786 -4.038901 5.573316 0.711538 2.311557 10.312984 13.589326 5.428602 0.000000 0.000000 0.000000 -0.458966 9.085086 -3.820533 -1.090582 5.277714 6.008724 -3.530328 -1.189556 1.473763 -27.163871 14.312141 9.075773 -3.013121 -11.640381 -0.369471 0.000000 0.000000 0.000000 -0.159767 8.741416 -4.151522 1.841340 -6.345694 3.156632 -1.055222 0.012319 -0.128766 -58.929772 55.844515 16.314054 0.324625 19.053690 -1.156051 0.000000 0.000000 0.000000 
-18.611425 108.046730 15.733112 0.000000 0.000000 0.000000 -5.268619 -38.191218 4.134681 -26.682499 13.971056 -16.728559 31.845296 13.932711 0.745326 2.407960 27.817057 8.631614 -7.078982 0.843239 -1.929893 0.000000 0.000000 0.000000 -4.825205 -36.286644 3.938364 -5.779929 -20.762570 8.876206 45.464215 -4.231012 -1.178848 -6.442161 5.254608 -8.864050 -32.891275 3.108896 -3.596916 0.000000 0.000000 0.000000 -4.924303 -37.578990 2.543374 -0.460729 4.387499 -3.450426 0.463992 9.039430 -4.656467 0.679572 0.230331 0.990317 0.000000 0.000000 0.000000 0.626467 8.599113 -4.782794 5.420829 0.931045 2.656223 9.522556 14.580123 5.793463 0.000000 0.000000 0.000000 -0.693018 8.923554 -4.506167 -1.132209 5.503490 5.217400 -3.094320 -2.644458 1.983918 -28.420108 12.493797 8.977842 -3.003454 -10.959383 -0.575131 0.000000 0.000000 0.000000 -0.532282 8.587799 -4.904795 1.750784 -6.125064 4.522480 -0.854295 -0.108434 -0.171586 -59.042798 51.126599 19.475128 0.363616 22.018483 -1.075786 0.000000 0.000000 0.000000 
